# AST/ASF file generated using VICON BodyLanguage
# -----------------------------------------------
:version 1.10
:name VICON
:units
  mass 1.0
  length 0.45
  angle deg
:documentation
   .ast/.asf automatically generated from VICON data using
   VICON BodyBuilder and BodyLanguage model FoxedUp or BRILLIANT.MOD
:root
   order TX TY TZ RX RY RZ
   axis XYZ
   position 0 0 0  
   orientation 0 0 0 
:bonedata
  begin
     id 1 
     name lhipjoint
     direction 0.630082 -0.636569 0.44472 
     length 2.82754 
     axis 0 0 0  XYZ
  end
  begin
     id 2 
     name lfemur
     direction 0.34202 -0.939693 0  
     length 7.26371  
     axis 0 0 20  XYZ
    dof rx ry rz
    limits (-160.0 20.0)
           (-70.0 70.0)
           (-60.0 70.0)
  end
  begin
     id 3 
     name ltibia
     direction 0.34202 -0.939693 0   
     length 7.88616   
     axis 0 0 20   XYZ
    dof rx
    limits (-10.0 170.0)
  end
  begin
     id 4 
     name lfoot
     direction 0.0603448 -0.165796 0.984312   
     length 1.77861   
     axis -90 7.62852e-016 20   XYZ
    dof rx rz
    limits (-45.0 90.0)
           (-70.0 20.0)
  end
  begin
     id 5 
     name ltoes
     direction 1.53577e-011 -4.21876e-011 1   
     length 0.902235   
     axis -90 7.62852e-016 20   XYZ
    dof rx
    limits (-90.0 20.0)
  end
  begin
     id 6 
     name rhipjoint
     direction -0.656778 -0.61817 0.431866   
     length 2.9117  
     axis 0 0 0  XYZ 
  end
  begin
     id 7 
     name rfemur
     direction -0.34202 -0.939693 0   
     length 6.81603   
     axis 0 0 -20   XYZ
    dof rx ry rz
    limits (-160.0 20.0)
           (-70.0 70.0)
           (-70.0 60.0)
  end
  begin
     id 8 
     name rtibia
     direction -0.34202 -0.939693 0   
     length 8.05997   
     axis 0 0 -20   XYZ
    dof rx
    limits (-10.0 170.0)
 end
 begin
     id 9 
     name rfoot
     direction -0.0862404 -0.236944 0.967688   
     length 1.84899  
     axis -90 -7.62852e-016 -20   XYZ
    dof rx rz
    limits (-45.0 90.0)
           (-20.0 70.0)
  end
  begin
     id 10 
     name rtoes
     direction -1.53561e-011 -4.21798e-011 1   
     length 0.931579   
     axis -90 -7.62852e-016 -20   XYZ
    dof rx
    limits (-90.0 20.0)
  end
  begin
     id 11 
     name lowerback
     direction -0.0110203 0.991769 -0.127564   
     length 2.05686   
     axis 0 0 0   XYZ
    dof rx ry rz
    limits (-20.0 45.0)
           (-30.0 30.0)
           (-30.0 30.0)
  end
  begin
     id 12 
     name upperback
     direction 0.0109719 0.99993 -0.00432479   
     length 2.06234   
     axis 0 0 0   XYZ
    dof rx ry rz
    limits (-20.0 45.0)
           (-30.0 30.0)
           (-30.0 30.0)
  end
  begin
     id 13 
     name thorax
     direction 0.0173308 0.998351 0.0547306   
     length 2.09856   
     axis 0 0 0   XYZ
    dof rx ry rz
    limits (-20.0 45.0)
           (-30.0 30.0)
           (-30.0 30.0)
  end
  begin
     id 14 
     name lowerneck
     direction -0.0311736 0.989033 0.144366   
     length 1.98151   
     axis 0 0 0   XYZ
    dof rx ry rz
    limits (-20.0 45.0)
           (-30.0 30.0)
           (-30.0 30.0)
  end
  begin
     id 15 
     name upperneck
     direction 0.0421057 0.975772 -0.214698   
     length 2.01457   
     axis 0 0 0   XYZ
    dof rx ry rz
    limits (-20.0 45.0)
           (-30.0 30.0)
           (-30.0 30.0)
  end
  begin
     id 16
     name head
     direction 0.0136911 0.995958 -0.0887718  
     length 2.03562  
     axis 0 0 0   XYZ
    dof rx ry rz
    limits (-20.0 45.0)
           (-30.0 30.0)
           (-30.0 30.0)
  end
  begin
     id 17 
     name lclavicle
     direction 0.915335 0.396201 0.0720134  
     length 4.16217  
     axis 0 0 0   XYZ
    dof ry rz
    limits (-20.0 10.0)
           (0.0 20.0)
  end
  begin
     id 18 
     name lhumerus
     direction 1 -4.48965e-011 6.383e-018   
     length 4.93042   
     axis -180 -30 -90   XYZ
    dof rx ry rz
    limits (-60.0 90.0)
           (-90.0 90.0)
           (-90.0 90.0)
  end
  begin
     id 19
     name lradius
     direction 1 -4.48972e-011 8.8689e-027   
     length 3.68177   
     axis -180 -30 -90   XYZ
    dof rx
    limits (-10.0 170.0)
  end
  begin
     id 20
     name lwrist
     direction 1 -4.48953e-011 1.17971e-026   
     length 1.84089   
     axis -7.69454e-015 90 90   XYZ
    dof ry
    limits (-180.0 0.0)
 end
  begin
     id 21 
     name lhand
     direction 1 -4.49027e-011 2.35802e-026   
     length 0.721479   
     axis -1.50533e-014 90 90   XYZ
    dof rx rz
    limits (-90.0 90.0)
           (-45.0 45.0)
  end
  begin
     id 22 
     name lfingers
     direction 1 -4.48915e-011 4.72027e-026   
     length 0.581675   
     axis -3.01059e-014 90 90   XYZ
    dof rx
    limits (0.0 90.0)
  end
  begin
     id 23
     name lthumb
     direction 0.707107 -6.34948e-011 0.707107   
     length 0.835172   
     axis -90 45 -5.12164e-014   XYZ
    dof rx rz
    limits (-45.0 45.0)
           (-45.0 45.0)
  end
  begin
     id 24 
     name rclavicle
     direction -0.882781 0.469197 0.0234974   
     length 3.95647  
     axis 0 0 0   XYZ 
    dof ry rz
    limits (-10.0 20.0)
           (-20.0 0.0)
  end
  begin
     id 25 
     name rhumerus
     direction -1 -4.48965e-011 -1.54906e-018  
     length 5.07905   
     axis -180 30 90   XYZ
    dof rx ry rz
    limits (-90.0 60.0)
           (-90.0 90.0)
           (-90.0 90.0)
  end
  begin
     id 26 
     name rradius
     direction -1 -4.48972e-011 5.47489e-027   
     length 3.54394   
     axis -180 30 90   XYZ
    dof rx
    limits (-10.0 170.0)
  end
  begin
     id 27 
     name rwrist
     direction -1 -4.48955e-011 1.17969e-026   
     length 1.77197   
     axis -7.69454e-015 -90 -90   XYZ
    dof ry
    limits (-180.0 0.0)
  end
  begin
     id 28
     name rhand
     direction -1 -4.48982e-011 2.35888e-026   
     length 0.681156   
     axis -1.50533e-014 -90 -90   XYZ
    dof rx rz
    limits (-90.0 90.0)
           (-45.0 45.0)
  end
  begin
     id 29
     name rfingers
     direction -1 -4.48955e-011 4.71877e-026   
     length 0.549165   
     axis -3.01059e-014 -90 -90   XYZ
    dof rx
    limits (0.0 90.0)
  end
  begin
     id 30
     name rthumb
     direction -0.707107 -6.3491e-011 0.707107   
     length 0.788495   
     axis -90 -45 5.12164e-014   XYZ
    dof rx rz
    limits (-45.0 45.0)
           (-45.0 45.0)
  end
:hierarchy
  begin
    root lhipjoint rhipjoint lowerback
    lhipjoint lfemur
    lfemur ltibia
    ltibia lfoot
    lfoot ltoes
    rhipjoint rfemur
    rfemur rtibia
    rtibia rfoot
    rfoot rtoes
    lowerback upperback
    upperback thorax
    thorax lowerneck lclavicle rclavicle
    lowerneck upperneck
    upperneck head
    lclavicle lhumerus
    lhumerus lradius
    lradius lwrist
    lwrist lhand lthumb
    lhand lfingers
    rclavicle rhumerus
    rhumerus rradius
    rradius rwrist
    rwrist rhand rthumb
    rhand rfingers
  end

#!OML:ASF H:\Bending\Project 1\Capture day 1\Session 1\Subject.ASF
:FULLY-SPECIFIED
:DEGREES
366
root -9.5411 17.9778 -16.4175 -46.2884 88.3793 -54.4025
lowerback 5.54399 0.363418 -0.164488
upperback -2.7227 0.567423 1.41491
thorax -5.96023 0.323837 1.5043
lowerneck -24.1926 -5.82342 -7.69884
upperneck 27.3616 -7.35307 6.94092
head 13.9374 -2.92619 2.68948
rclavicle 1.39149e-015 -2.38542e-015
rhumerus -43.1977 0.614975 -79.8967
rradius 35.0243
rwrist 2.34981
rhand -19.1498 -29.6611
rfingers 7.12502
rthumb 7.16059 -59.52
lclavicle 1.39149e-015 -2.38542e-015
lhumerus -43.4495 19.4137 72.238
lradius 8.90899
lwrist -2.69198
lhand -25.8453 9.65098
lfingers 7.12502
lthumb 0.695193 39.6296
rfemur 2.04245 2.28792 12.9062
rtibia 0
rfoot -7.34214 -18.4981
rtoes -12.7628
lfemur -10.4041 -16.8 -9.82059
ltibia 22.4037
lfoot -23.5769 15.1587
ltoes -19.2049
367
root -9.57147 17.9754 -16.4262 -51.5181 88.3738 -59.5642
lowerback 5.57393 0.249967 -0.126268
upperback -2.7185 0.421664 1.45977
thorax -5.96896 0.251435 1.54505
lowerneck -24.1379 -5.78222 -7.65112
upperneck 27.4526 -7.32093 6.94845
head 13.9602 -2.90504 2.69402
rclavicle -4.14963e-015 -9.93923e-016
rhumerus -42.3621 -0.768773 -79.1517
rradius 34.5581
rwrist 2.98268
rhand -18.9721 -29.3324
rfingers 7.12502
rthumb 7.33205 -59.1853
lclavicle -4.14963e-015 -9.93923e-016
lhumerus -42.6735 20.0726 72.3024
lradius 8.27946
lwrist -2.8701
lhand -26.6474 10.4709
lfingers 7.12502
lthumb -0.0795211 40.4506
rfemur 2.05022 2.1894 12.9898
rtibia 2.06736e-014
rfoot -7.28062 -18.5232
rtoes -13.0067
lfemur -10.5207 -17.1715 -9.73013
ltibia 22.5364
lfoot -23.6307 15.4604
ltoes -19.7912
368
root -9.60157 17.9728 -16.4362 -56.8462 88.3712 -64.7959
lowerback 5.61375 0.156881 -0.0537735
upperback -2.70184 0.304246 1.48057
thorax -5.9706 0.19096 1.53846
lowerneck -24.0622 -5.78191 -7.65312
upperneck 27.5057 -7.34056 6.99341
head 13.9716 -2.90722 2.71117
rclavicle -6.70898e-016 -9.34288e-015
rhumerus -41.614 -1.94186 -78.5722
rradius 34.3145
rwrist 3.20645
rhand -18.8365 -28.9643
rfingers 7.12502
rthumb 7.46299 -58.8127
lclavicle -6.70898e-016 -9.34288e-015
lhumerus -42.2371 20.5711 72.295
lradius 8.6871
lwrist -2.72615
lhand -27.4057 10.9046
lfingers 7.12502
lthumb -0.811911 40.8828
rfemur 2.11288 2.07961 13.0373
rtibia 1.59028e-014
rfoot -7.42951 -18.4672
rtoes -12.1416
lfemur -10.5784 -17.6661 -9.66312
ltibia 22.6256
lfoot -23.7581 15.7784
ltoes -19.8843
369
root -9.63113 17.97 -16.4469 -61.1532 88.3553 -68.9979
lowerback 5.64646 0.0971661 0.0303276
upperback -2.68304 0.231391 1.48526
thorax -5.96716 0.151633 1.50383
lowerneck -23.9621 -5.81653 -7.70535
upperneck 27.5252 -7.40161 7.06996
head 13.9714 -2.92922 2.74087
rclavicle 1.39149e-015 -4.77083e-015
rhumerus -40.9587 -2.89077 -78.1472
rradius 34.269
rwrist 3.09169
rhand -18.8397 -28.5671
rfingers 7.12502
rthumb 7.45992 -58.4155
lclavicle 1.39149e-015 -4.77083e-015
lhumerus -42.0477 20.9227 72.2381
lradius 9.89064
lwrist -2.43363
lhand -27.9584 10.8156
lfingers 7.12502
lthumb -1.34577 40.7911
rfemur 2.19531 1.99317 13.0524
rtibia 0
rfoot -7.74184 -18.3439
rtoes -10.407
lfemur -10.5892 -18.258 -9.61606
ltibia 22.6755
lfoot -23.9911 16.1056
ltoes -19.3901
370
root -9.6599 17.9675 -16.4575 -63.319 88.3144 -71.0765
lowerback 5.65101 0.0740223 0.0940851
upperback -2.67551 0.206029 1.49171
thorax -5.96094 0.136733 1.4774
lowerneck -23.8391 -5.8682 -7.79166
upperneck 27.5273 -7.47759 7.15534
head 13.9626 -2.96086 2.77681
rclavicle -1.19271e-015 -7.95139e-016
rhumerus -40.3843 -3.60666 -77.8501
rradius 34.3681
rwrist 2.80882
rhand -18.951 -28.1787
rfingers 7.12502
rthumb 7.3524 -58.0309
lclavicle -1.19271e-015 -7.95139e-016
lhumerus -41.983 21.1776 72.1455
lradius 11.577
lwrist -2.1187
lhand -28.1587 10.1708
lfingers 7.12502
lthumb -1.53918 40.145
rfemur 2.25027 1.96393 13.0496
rtibia -3.18055e-015
rfoot -8.11468 -18.185
rtoes -8.3177
lfemur -10.5784 -18.8968 -9.57807
ltibia 22.6978
lfoot -24.3381 16.4385
ltoes -18.368
371
root -9.68767 17.9658 -16.4673 -62.9836 88.244 -70.691
lowerback 5.61131 0.0816284 0.111441
upperback -2.6888 0.219341 1.51655
thorax -5.95262 0.143411 1.49207
lowerneck -23.7009 -5.9185 -7.88843
upperneck 27.5329 -7.54278 7.22295
head 13.9508 -2.99184 2.80975
rclavicle 1.2921e-015 -7.95139e-016
rhumerus -39.8705 -4.0843 -77.6561
rradius 34.5549
rwrist 2.53954
rhand -19.0669 -27.8649
rfingers 7.12502
rthumb 7.24057 -57.721
lclavicle 1.2921e-015 -7.95139e-016
lhumerus -40.7601 17.6436 75.539
lradius 13.5268
lwrist 3.02709
lhand -28.8995 9.86323
lfingers 7.12502
lthumb -2.25461 39.8311
rfemur 2.24181 2.00673 13.046
rtibia -6.36111e-015
rfoot -8.43876 -18.0312
rtoes -6.45319
lfemur -10.5735 -19.5212 -9.53738
ltibia 22.7066
lfoot -24.7704 16.7736
ltoes -17.0355
372
root -9.71433 17.9653 -16.4762 -60.8535 88.148 -68.5506
lowerback 5.52486 0.109499 0.0752654
upperback -2.72363 0.257054 1.56444
thorax -5.94125 0.165029 1.55829
lowerneck -23.5577 -5.95911 -7.9765
upperneck 27.5585 -7.58774 7.25772
head 13.9425 -3.01761 2.83249
rclavicle 1.46604e-015 -8.74653e-015
rhumerus -39.3992 -4.32743 -77.551
rradius 34.7873
rwrist 2.39854
rhand -19.1012 -27.6897
rfingers 7.12502
rthumb 7.20747 -57.547
lclavicle 1.46604e-015 -8.74653e-015
lhumerus -39.8344 14.6714 78.2513
lradius 15.6053
lwrist 7.31014
lhand -29.3218 9.36456
lfingers 7.12502
lthumb -2.66254 39.3277
rfemur 2.16497 2.10802 13.0521
rtibia 1.43125e-014
rfoot -8.64617 -17.9148
rtoes -5.20169
lfemur -10.5927 -20.0776 -9.48887
ltibia 22.7134
lfoot -25.2269 17.1025
ltoes -15.6922
373
root -9.73986 17.9656 -16.4841 -58.2393 88.0424 -65.9486
lowerback 5.40575 0.147355 0.00228576
upperback -2.77149 0.306123 1.62446
thorax -5.92563 0.194168 1.65676
lowerneck -23.421 -5.99501 -8.04995
upperneck 27.6134 -7.62368 7.26578
head 13.9451 -3.04101 2.84439
rclavicle -3.80176e-015 -1.19271e-015
rhumerus -38.9593 -4.35758 -77.5298
rradius 35.0433
rwrist 2.40804
rhand -19.0433 -27.6687
rfingers 7.12502
rthumb 7.26335 -57.5241
lclavicle -3.80176e-015 -1.19271e-015
lhumerus -39.038 12.2722 80.3848
lradius 17.6996
lwrist 10.8398
lhand -29.4417 8.83976
lfingers 7.12502
lthumb -2.77826 38.8014
rfemur 2.05021 2.23108 13.0677
rtibia 0
rfoot -8.7338 -17.8447
rtoes -4.60464
lfemur -10.6375 -20.5333 -9.4374
ltibia 22.7276
lfoot -25.6355 17.4076
ltoes -14.5977
374
root -9.76434 17.9659 -16.4914 -56.2663 87.9536 -63.9799
lowerback 5.28053 0.188842 -0.0751829
upperback -2.81893 0.359233 1.67535
thorax -5.90638 0.225282 1.74794
lowerneck -23.2999 -6.0388 -8.11568
upperneck 27.6991 -7.67361 7.27148
head 13.9651 -3.06892 2.85187
rclavicle -5.46658e-016 1.13307e-014
rhumerus -38.5465 -4.22141 -77.5857
rradius 35.312
rwrist 2.5291
rhand -18.9502 -27.7427
rfingers 7.12502
rthumb 7.35325 -57.5949
lclavicle -5.46658e-016 1.13307e-014
lhumerus -38.2569 10.3522 82.0694
lradius 19.7548
lwrist 13.8179
lhand -29.3449 8.43808
lfingers 7.12502
lthumb -2.68478 38.4009
rfemur 1.95028 2.33385 13.0833
rtibia 6.36111e-015
rfoot -8.75546 -17.805
rtoes -4.38751
lfemur -10.6946 -20.8829 -9.39615
ltibia 22.7576
lfoot -25.9463 17.6623
ltoes -13.855
375
root -9.78792 17.965 -16.4987 -55.4785 87.9015 -63.1585
lowerback 5.17653 0.231722 -0.123483
upperback -2.85392 0.414616 1.69766
thorax -5.88599 0.255524 1.79277
lowerneck -23.1995 -6.09996 -8.18605
upperneck 27.8123 -7.7558 7.30453
head 14.0063 -3.10621 2.86534
rclavicle 1.46604e-015 1.63003e-014
rhumerus -38.1571 -3.98594 -77.7003
rradius 35.58
rwrist 2.71626
rhand -18.8873 -27.7961
rfingers 7.12502
rthumb 7.41396 -57.6462
lclavicle 1.46604e-015 1.63003e-014
lhumerus -37.4429 8.82387 83.4026
lradius 21.7545
lwrist 16.3962
lhand -29.1452 8.24991
lfingers 7.12502
lthumb -2.49195 38.2151
rfemur 1.91559 2.38947 13.0889
rtibia -4.77083e-015
rfoot -8.79005 -17.7678
rtoes -4.13581
lfemur -10.744 -21.1422 -9.37759
ltibia 22.8146
lfoot -26.1533 17.8392
ltoes -13.3868
376
root -9.81063 17.9621 -16.5062 -55.8518 87.8841 -63.4441
lowerback 5.10854 0.275131 -0.123325
upperback -2.87081 0.472046 1.68547
thorax -5.86655 0.283779 1.77422
lowerneck -23.1186 -6.17547 -8.26684
upperneck 27.9455 -7.86918 7.38217
head 14.0667 -3.15067 2.89291
rclavicle -2.00027e-015 -8.94531e-015
rhumerus -37.7824 -3.72249 -77.8417
rradius 35.8228
rwrist 2.95561
rhand -18.8688 -27.7072
rfingers 7.12502
rthumb 7.43182 -57.5567
lclavicle -2.00027e-015 -8.94531e-015
lhumerus -36.5997 7.63835 84.4504
lradius 23.7013
lwrist 18.652
lhand -28.95 8.29184
lfingers 7.12502
lthumb -2.30341 38.2592
rfemur 1.97116 2.39864 13.0827
rtibia -3.18055e-015
rfoot -8.90147 -17.7087
rtoes -3.51358
lfemur -10.7705 -21.3378 -9.38402
ltibia 22.9111
lfoot -26.2958 17.9218
ltoes -12.9968
